<?xml version="1.0" encoding="UTF-8"?>
<svg xmlns="http://www.w3.org/2000/svg" id="Layer_1" data-name="Layer 1" viewBox="0 0 24 24">
  <path d="M22.122,13.848c-1.972-.443-3.318,.099-4.057,.576l-1.698-1.004c.126-.393,.226-.875,.226-1.415,0-.546-.103-1.031-.232-1.423l1.704-1.007c.546,.353,1.423,.741,2.639,.741,.43,0,.902-.048,1.417-.164,.539-.121,.878-.656,.757-1.194-.121-.54-.663-.879-1.194-.757-1.472,.329-2.316-.13-2.632-.364-.053-.405-.04-1.371,.959-2.5,.366-.414,.327-1.046-.086-1.412-.414-.367-1.046-.327-1.412,.086-1.343,1.519-1.521,2.963-1.462,3.841l-1.91,1.129-2.141-1.37v-2.09c.784-.396,1.933-1.284,2.555-3.215,.169-.526-.12-1.089-.646-1.258-.527-.169-1.089,.121-1.258,.646-.462,1.438-1.285,1.939-1.648,2.095-.374-.16-1.192-.662-1.653-2.095-.169-.525-.731-.815-1.258-.646-.526,.169-.815,.732-.646,1.258,.621,1.931,1.77,2.819,2.555,3.215v2.09l-2.141,1.37-1.91-1.129c.059-.878-.119-2.322-1.462-3.841-.367-.413-.997-.453-1.412-.086-.414,.366-.452,.998-.086,1.412,1.003,1.134,1.012,2.103,.961,2.496-.325,.242-1.17,.696-2.635,.368-.534-.119-1.073,.218-1.194,.757-.121,.539,.218,1.074,.757,1.194,.515,.116,.987,.164,1.417,.164,1.217,0,2.094-.388,2.639-.741l1.705,1.008c-.129,.393-.233,.878-.233,1.423,0,.538,.101,1.02,.227,1.414l-1.699,1.004c-.739-.477-2.084-1.02-4.057-.576-.539,.121-.878,.656-.757,1.194,.121,.539,.66,.876,1.194,.757,1.471-.331,2.316,.129,2.632,.364,.053,.405,.04,1.371-.959,2.5-.366,.414-.327,1.046,.086,1.412,.19,.168,.427,.251,.662,.251,.277,0,.552-.114,.75-.337,1.343-1.519,1.521-2.963,1.462-3.841l1.885-1.115,2.166,1.361v2.085c-.784,.396-1.933,1.284-2.555,3.215-.169,.526,.12,1.089,.646,1.258,.527,.169,1.089-.121,1.258-.646,.462-1.438,1.285-1.939,1.648-2.095,.374,.16,1.192,.662,1.653,2.095,.137,.424,.529,.694,.952,.694,.101,0,.205-.016,.306-.048,.526-.169,.815-.732,.646-1.258-.621-1.931-1.77-2.819-2.555-3.215v-2.085l2.166-1.361,1.885,1.115c-.059,.878,.119,2.322,1.462,3.841,.198,.223,.473,.337,.75,.337,.235,0,.472-.083,.662-.251,.414-.366,.452-.998,.086-1.412-1.003-1.134-1.012-2.103-.961-2.496,.326-.242,1.173-.695,2.635-.368,.539,.123,1.074-.217,1.194-.757,.121-.539-.218-1.074-.757-1.194Zm-10.122,.812l-2.297-1.444c-.114-.232-.296-.686-.296-1.211s.183-.967,.293-1.188l2.3-1.473,2.301,1.473c.111,.221,.292,.661,.292,1.187,0,.53-.182,.98-.295,1.21l-2.299,1.445Z"/>
</svg>
